{"title":"Prometheus 2012.1080p.BluRay.5.1..x264 . NVEE","uid":13102858,"size":2951568113,"categoryP":"video","categoryS":"hd___movies","magnet":"?xt=urn:btih:0b519df73abd01045ff617ade1e3d9d4ec717495&amp;dn=Prometheus+2012.1080p.BluRay.5.1..x264+.+NVEE&amp;tr=udp%3A%2F%2Ftracker.leechers-paradise.org%3A6969&amp;tr=udp%3A%2F%2Fzer0day.ch%3A1337&amp;tr=udp%3A%2F%2Fopen.demonii.com%3A1337&amp;tr=udp%3A%2F%2Ftracker.coppersurfer.tk%3A6969&amp;tr=udp%3A%2F%2Fexodus.desync.com%3A6969","seeders":4,"leechers":0,"uploader":".NVEE","files":10,"time":1451251531,"description":"FULL_INFOs \r\n\r\n99.99% &gt;&gt;&gt; SYNCED GUARANTEED \r\n\r\n&quot;Totally scrutinized / analyzed to be a verified torrent.&quot; \r\n___________________________________________ \r\n\r\nSource : Blu-Ray ~ 1080p \r\n\r\nMy Media Player of Choice &quot;VLC Media Player via HDMI&quot; \r\n\r\nSpoken Language: English \r\n\r\nAudio : 6 ~ Channels Only \r\n\r\nOnly @\r\n\r\nDon't delete torrent link,... Please seed . NVEE \r\n_____________________________________ \r\n\r\n\r\n \r\n \nhttp://www.imdb.com/title/tt1446714/ \r\n\r\n \r\nSubs Info : x9 ~ Multisubs. \r\n \nhttp://www.subtitleseeker.com/1446714/Prometheus/Subtitles/ \r\n\r\n1639 Subtitles In 49 Languages Use Link Provided \r\n \nhttp://www.subtitleseeker.com/1446714/Prometheus/Subtitles/ \r\n\r\n1639 Subtitles In 49 Languages Only @ SubtitleSeeker \r\n \nhttp://www.subtitleseeker.com/1446714/Prometheus/Subtitles/ \r\n\r\n&amp; or @ \r\n \nhttp://subscene.com/subtitles/prometheus-2012 \r\n\r\nAll .srt subs can be turned On/Off \r\n\r\n\r\n \r\n \nhttp://www.imdb.com/title/tt1446714/ \r\n\r\n--------------------------------------------------------------------------------- \r\n\r\n \r\nGeneral Metadata \r\n\r\nComplete name : Prometheus 2012.1080p.BluRay.5.1.x264 . NVEE.mp4 \r\nFormat : MPEG-4 \r\nFormat profile : Base Media \r\nCodec ID : isom \r\nFile size : 2.75 GiB \r\nDuration : 2h 3mn \r\nOverall bit rate : 3 179 Kbps \r\nEncoded date : UTC 2013-11-11 22:36:12 \r\nTagged date : UTC 2013-11-11 22:36:12 \r\n\r\n \r\nVideo \r\n\r\nID : 1 \r\nFormat : AVC \r\nFormat/Info : Advanced Video Codec \r\nFormat profile :    \r\nFormat settings, CABAC : Yes \r\nFormat settings, ReFrames : 3 frames \r\nCodec ID : avc1 \r\nCodec ID/Info : Advanced Video Coding \r\nDuration : 2h 3mn \r\nBit rate : 2 539 Kbps \r\nMaximum bit rate : 37.6 Mbps \r\nWidth : 1 920 pixels \r\nHeight : 800 pixels \r\nDisplay aspect ratio : 2.40:1 \r\nFrame rate mode : Constant \r\nFrame rate : 23.976 fps \r\nColor space : YUV \r\nChroma subsampling : 4:2:0 \r\nBit depth : 8 bits \r\nScan type : Progressive \r\nBits/(Pixel*Frame) : 0.069 \r\nStream size : 2.19 GiB (80%) \r\nWriting library : x264 core 133 r2334 a3ac64b \r\nEncoded date : UTC 2013-11-11 17:21:02 \r\nTagged date : UTC 2013-11-11 22:39:32 \r\n\r\n \r\nAudio \r\n\r\nID : 2 \r\nFormat : AC-3 \r\nFormat/Info : Audio Coding 3 \r\nMode extension : CM (complete main) \r\nFormat settings, Endianness : Big \r\nCodec ID : ac-3 \r\nDuration : 2h 3mn \r\nBit rate mode : Constant \r\nBit rate : 640 Kbps \r\nChannel(s) : 6 channels \r\nChannel positions : Front: L C R, Side: L R, LFE \r\nSampling rate : 48.0 KHz \r\nBit depth : 16 bits \r\nCompression mode : Lossy \r\nDelay relative to video : 83ms \r\nStream size : 567 MiB (20%) \r\nTitle : 1080p.BluRay.x264 . NVEE - [1] English.ac3#trackID=1:   \r\nLanguage : English \r\nEncoded date : UTC 2013-11-11 22:37:50 \r\nTagged date : UTC 2013-11-11 22:39:32 \r\n\r\n \r\n \r\n\r\nSynopsis \r\n\r\nAs a hovering spacecraft departs an Earth-like world, a humanoid alien drinks a dark, bubbling liquid, then starts to disintegrate. The alien's remains cascade into a waterfall. His DNA triggers a biogenetic reaction. \r\n\r\n\r\n\r\n\r\nEnjoy !","torrent":{"xt":"urn:btih:0b519df73abd01045ff617ade1e3d9d4ec717495","amp;dn":"Prometheus+2012.1080p.BluRay.5.1..x264+.+NVEE","amp;tr":["udp%3A%2F%2Ftracker.leechers-paradise.org%3A6969","udp%3A%2F%2Fzer0day.ch%3A1337","udp%3A%2F%2Fopen.demonii.com%3A1337","udp%3A%2F%2Ftracker.coppersurfer.tk%3A6969","udp%3A%2F%2Fexodus.desync.com%3A6969"],"infoHash":"0b519df73abd01045ff617ade1e3d9d4ec717495","infoHashBuffer":{"type":"Buffer","data":[11,81,157,247,58,189,1,4,95,246,23,173,225,227,217,212,236,113,116,149]},"announce":[],"urlList":[]}}